<?xml version="1.0" encoding="UTF-8"?>
<svg width="24" height="24" viewBox="0 0 24 24" fill="white" xmlns="http://www.w3.org/2000/svg">
  <path d="M23.643 4.937a9.655 9.655 0 01-2.828.775 4.958 4.958 0 002.165-2.723 9.864 9.864 0 01-3.127 1.195 4.92 4.92 0 00-8.384 4.482A13.955 13.955 0 011.671 3.149a4.822 4.822 0 001.523 6.573 4.903 4.903 0 01-2.228-.616v.062a4.924 4.924 0 003.946 4.827 4.996 4.996 0 01-2.224.085 4.928 4.928 0 004.6 3.417A9.868 9.868 0 010 21.543a13.936 13.936 0 007.548 2.212c9.056 0 14.01-7.517 14.01-14.01 0-.213-.005-.426-.014-.637A10.012 10.012 0 0024 4.59l-.357.347z"/>
</svg>
